<svg xmlns:dc="http://purl.org/dc/elements/1.1/" xmlns:cc="http://creativecommons.org/ns#" xmlns:rdf="http://www.w3.org/1999/02/22-rdf-syntax-ns#" xmlns:svg="http://www.w3.org/2000/svg" xmlns="http://www.w3.org/2000/svg" xmlns:sodipodi="http://sodipodi.sourceforge.net/DTD/sodipodi-0.dtd" xmlns:inkscape="http://www.inkscape.org/namespaces/inkscape" viewBox="0 0 80 80" version="1.1" x="0px" y="0px"><path d="M 74.979532,10.400158 C 75.549009,9.8373861 75.977796,9.1406211 76.57407,8.6046381 74.016821,15.938653 73.756897,19.695935 78.222195,23.08941 c 0.455583,0.395284 0.991558,0.696773 1.393539,1.152349 -0.408678,0.254593 -0.897764,0.32159 -1.360037,0.227796 -5.851091,-0.194437 -10.291133,3.781529 -9.3997,9.379592 -0.267988,-0.187596 -0.495775,-0.435484 -0.757066,-0.629777 -5.019656,-2.105591 -12.305868,0.346711 -13.995694,5.634457 -0.207688,0.502481 -0.616374,0.877665 -0.991558,1.259546 -0.100491,-0.355084 -0.207688,-0.716865 -0.395276,-1.03175 -0.850867,-1.507441 -1.976419,-2.827279 -3.142163,-4.09353 -0.86427,-0.817364 -1.728532,-1.668224 -2.800482,-2.217601 -1.179146,-0.556075 -2.572685,-0.790568 -3.825534,-0.341682 -1.669678,0.646048 -1.496938,1.802655 -0.891059,2.766979 0.569469,1.105453 0.609669,2.385098 0.931259,3.564244 0.535975,1.212649 1.53423,2.150605 2.619583,2.867479 0.690068,0.495775 1.406942,0.937956 2.150604,1.339937 0.736974,0.415384 1.366743,0.991558 2.003217,1.547633 0.623071,0.54268 1.058555,1.266243 1.393539,2.016611 2.805511,5.478147 3.165155,9.526107 -1.098755,13.714312 -0.569469,0.56947 -1.226043,1.025053 -1.862517,1.500729 0.515875,0.76377 1.219346,1.480636 1.339945,2.431994 0.603743,10.184763 -12.490485,8.023091 -5.279373,-1.487333 0.50248,-0.710169 1.125552,-1.326543 1.708424,-1.963017 -0.569478,-0.803962 -0.897757,-1.85582 -0.576175,-2.820573 0.254593,0.361781 0.308187,0.817365 0.428786,1.232748 0.167489,0.401981 0.475676,0.730268 0.817365,0.998256 5.420645,-3.550738 5.552096,-11.681073 -1.172457,-13.781301 -1.386834,-0.234493 -2.800473,-0.375184 -4.133713,-0.857565 0.160791,0.509178 0.395276,1.004953 0.783862,1.380137 0.227788,0.227788 0.107197,0.589577 -0.0402,0.824062 -0.267988,0.54268 -0.797265,0.857565 -1.212649,1.266251 -0.381881,0.422081 -0.716866,0.904462 -0.897756,1.440437 -0.107197,0.348387 -0.107197,0.723571 -0.221091,1.071949 -0.167496,0.308188 -0.475683,0.495784 -0.757073,0.690077 0.0201,0.636466 0.247895,1.25284 0.24119,1.889315 -0.455575,-0.127297 -0.837457,-0.408687 -1.192549,-0.710169 0.01343,0.368487 0.06697,0.743663 0.0402,1.118847 -0.428778,-0.281382 -0.79056,-0.649869 -1.165744,-0.984853 -0.133994,-0.133994 -0.328287,-0.02677 -0.489086,-0.03353 -0.341681,-0.455576 -0.629769,-0.991551 -0.502472,-1.587825 0.107196,-0.334992 0.288087,-0.710176 0.643171,-0.837465 0.314885,-0.154093 0.710169,-0.0938 0.971459,-0.355084 0.770468,-0.690076 1.433739,-1.480636 2.103708,-2.264507 0.234485,-0.328287 0.589577,-0.643171 0.549377,-1.092049 -0.0603,-1.071958 -0.549377,-2.063508 -1.112157,-2.954575 -0.05363,0 -0.160791,0 -0.214386,0 -0.455583,0.891067 -0.582879,2.023316 -0.100499,2.927778 0.154094,0.24119 -0.127296,0.475675 -0.26129,0.656566 -0.522572,0.529277 -1.299738,0.589577 -1.902717,0.984861 -0.489078,0.288087 -0.964753,0.643171 -1.266243,1.132249 -0.167488,0.24119 -0.254585,0.535975 -0.462281,0.750368 -0.267987,0.22109 -0.643171,0.227788 -0.937956,0.408678 -0.187596,0.556083 -0.120599,1.165752 -0.334984,1.71513 -0.0603,0 -0.174194,0.0064 -0.234493,0.0064 -0.261291,-0.321581 -0.482381,-0.676666 -0.710169,-1.03175 -0.107196,0.348379 -0.154093,0.710169 -0.30149,1.045153 -0.401981,-0.267988 -0.502472,-0.810668 -0.743662,-1.212649 -0.06697,-0.194293 -0.288088,-0.194293 -0.448886,-0.254585 -0.288088,-0.669976 -0.294785,-1.628032 0.401989,-2.050113 0.422081,-0.415384 1.05185,0.0402 1.540927,-0.194294 1.185852,-0.50248 2.344899,-1.092049 3.410151,-1.822317 0.348387,-0.214393 0.294793,-0.690069 0.375184,-1.038456 0.05363,-0.777165 0.133994,-1.581135 -0.140691,-2.324798 -0.381881,-0.964761 -0.937956,-1.869223 -1.112149,-2.900981 -0.127297,-0.77046 0.16079,-1.49403 0.435475,-2.190804 0.0402,-0.569469 0.03353,-1.152349 0.0603,-1.728524 -0.09379,-0.850859 0.07373,-1.735221 -0.254585,-2.545889 -0.308187,-0.803962 -0.616374,-1.648124 -1.152349,-2.331495 -0.415384,-0.515883 -1.159055,-0.395284 -1.681635,-0.120599 -2.197502,1.078655 -4.113622,2.813876 -5.212369,5.02478 -0.515883,0.937964 -0.549377,2.070214 -1.105452,2.988078 -1.262087,-3.977325 -7.099212,-6.274898 -10.692739,-5.078424 -0.06697,0.267987 -0.133994,0.535975 -0.241191,0.790568 -1.756377,-4.080938 -6.7145263,-9.149374 -12.6356493,-5.513867 1.5027781,-4.765277 1.8156446,-8.42863 -1.540935,-13.091232 -0.314885,-0.596275 -0.241191,-1.29304 -0.388579,-1.936212 0.02677,-0.01343 0.08039,-0.05363 0.107189,-0.06697 0.703471,0.730268 1.360045,1.527533 2.224307,2.076911 3.8013679,1.889602 12.6950033,6.362797 19.2080703,2.110405 0.422081,-0.09379 0.870959,0 1.246143,0.20099 -0.899056,0.815047 -0.258119,1.85077 0.107197,2.793777 1.021695,1.946485 1.973323,3.594069 3.604444,4.763498 3.754345,0.287338 7.819585,-0.759569 11.290298,0.319645 1.487849,-2.494836 2.857806,-4.73563 2.959981,-7.602227 -0.247888,0.0402 -0.442181,0.187588 -0.629769,0.348379 -0.254593,0.234493 -0.616374,0.174193 -0.937964,0.174193 0.05363,-0.254584 0.107197,-0.509177 0.154094,-0.763762 C 39.906552,19.397531 39.517974,18.680665 38.8011,18.40598 38.667106,18.33901 38.700609,18.158085 38.667106,18.037493 38.097637,17.890097 37.521455,17.803 36.94528,17.736004 c 0.127296,-0.502473 0.556083,-0.87096 1.018355,-1.058556 0.34169,0.01343 0.649877,0.214394 0.984861,0.261291 0.576175,0.328287 1.145652,-0.28139 1.721827,0.0201 0.897756,0.32159 1.949614,0.34169 2.766979,-0.187588 0.07373,0.09379 0.772899,-0.106481 0.846601,-0.01271 -0.174193,0.194285 -1.000695,0.655851 -1.188283,0.836742 0.0064,0.02677 0.01343,0.09379 0.01343,0.127296 0.676674,0.0871 2.144273,-0.0746 2.626653,0.494894 -0.428778,0.107196 -1.521201,0.201872 -1.949979,0.275566 0.475675,0.924562 2.008881,2.52528 1.841384,3.590533 -0.09379,-0.01343 -1.325509,-0.589061 -1.412606,-0.602455 -0.113894,0.803962 0.240674,2.156785 0.173677,2.967453 -0.100499,0 -0.776649,-0.562264 -0.877148,-0.562264 -0.02677,0.649877 -0.381881,1.199254 -0.602972,1.788824 -0.140691,0.623071 -0.187588,1.266251 -0.28139,1.89602 2.876816,-0.189442 6.712984,0.448144 9.178602,-0.28139 1.212649,-1.232741 2.056811,-2.753577 2.947878,-4.220819 0.691006,-1.555204 2.048285,-2.85074 0.870959,-4.160518 0.348387,-0.03353 0.703471,-0.09379 1.045152,0.01343 7.499128,-0.0094 13.318004,-2.160035 18.310307,-8.522035 m -26.45715,53.718278 c -0.147397,-0.683371 -0.54268,-1.259546 -1.011658,-1.762026 -10.495516,7.603464 2.420856,9.514206 1.011658,1.762026 z" style="" fill="#CCCCCC" stroke="none"></path></svg>